<svg xmlns="http://www.w3.org/2000/svg" viewBox="0 0 420 340" role="img" aria-label="Bylinkárka Helena za dedinou" preserveAspectRatio="xMidYMid meet"><defs>
<pattern id="h45" width="7" height="7" patternUnits="userSpaceOnUse" patternTransform="rotate(45)">
  <line x1="0" y1="0" x2="0" y2="7" stroke="#000" stroke-width="2.6"/>
</pattern>
<pattern id="h45f" width="4.2" height="4.2" patternUnits="userSpaceOnUse" patternTransform="rotate(45)">
  <line x1="0" y1="0" x2="0" y2="4.2" stroke="#000" stroke-width="1.7"/>
</pattern>
<pattern id="h135" width="7" height="7" patternUnits="userSpaceOnUse" patternTransform="rotate(-45)">
  <line x1="0" y1="0" x2="0" y2="7" stroke="#000" stroke-width="2.4"/>
</pattern>
<pattern id="hv" width="6" height="6" patternUnits="userSpaceOnUse">
  <line x1="0" y1="0" x2="0" y2="6" stroke="#000" stroke-width="2.2"/>
</pattern>
<pattern id="hh" width="6" height="6" patternUnits="userSpaceOnUse">
  <line x1="0" y1="0" x2="6" y2="0" stroke="#000" stroke-width="2"/>
</pattern>
<pattern id="hhf" width="4" height="4" patternUnits="userSpaceOnUse">
  <line x1="0" y1="0" x2="4" y2="0" stroke="#000" stroke-width="1.5"/>
</pattern>
<pattern id="cross" width="7" height="7" patternUnits="userSpaceOnUse" patternTransform="rotate(45)">
  <line x1="0" y1="0" x2="0" y2="7" stroke="#000" stroke-width="2.2"/>
  <line x1="0" y1="0" x2="7" y2="0" stroke="#000" stroke-width="2.2"/>
</pattern>
<pattern id="dots" width="9" height="9" patternUnits="userSpaceOnUse">
  <circle cx="4.5" cy="4.5" r="1.7" fill="#000"/>
</pattern>
<linearGradient id="fade" x1="0" y1="0" x2="0" y2="1">
  <stop offset="0" stop-color="#fff"/><stop offset=".42" stop-color="#777"/>
  <stop offset="1" stop-color="#000"/>
</linearGradient>
<mask id="skymask"><rect x="0" y="0" width="420" height="340" fill="url(#fade)"/></mask>
</defs><g fill="none" stroke="#000" stroke-linecap="round" stroke-linejoin="round"><g mask="url(#skymask)"><rect x="0" y="0" width="420" height="340" fill="url(#h45f)" opacity=".5"/></g><path d="M-10 109.36 L-18.2 130.68 L-13.69 130.68 L-10 106.08 L-6.3100000000000005 130.68 L-1.8000000000000007 130.68 Z" fill="#000" stroke="#000" stroke-width="1.5"/><path d="M-10 121.93333333333334 L-24.21333333333333 138.88 L-16.396 138.88 L-10 118.65333333333334 L-3.604000000000001 138.88 L4.213333333333331 138.88 Z" fill="#000" stroke="#000" stroke-width="1.5"/><path d="M-10 134.50666666666666 L-30.226666666666663 147.08 L-19.101999999999997 147.08 L-10 131.22666666666666 L-0.8980000000000015 147.08 L10.226666666666663 147.08 Z" fill="#000" stroke="#000" stroke-width="1.5"/><path d="M-10 147.08 L-36.239999999999995 155.28 L-21.808 155.28 L-10 143.8 L1.8079999999999998 155.28 L16.24 155.28 Z" fill="#000" stroke="#000" stroke-width="1.5"/><rect x="-11.968" y="145.44" width="3.9359999999999995" height="7.38" fill="#000"/><path d="M16 107.75999999999999 L4.799999999999999 136.88 L10.959999999999999 136.88 L16 103.27999999999999 L21.04 136.88 L27.200000000000003 136.88 Z" fill="#000" stroke="#000" stroke-width="1.5"/><path d="M16 124.93333333333332 L-3.413333333333334 148.07999999999998 L7.263999999999999 148.07999999999998 L16 120.45333333333332 L24.736 148.07999999999998 L35.413333333333334 148.07999999999998 Z" fill="#000" stroke="#000" stroke-width="1.5"/><path d="M16 142.10666666666665 L-11.626666666666665 159.28 L3.5679999999999996 159.28 L16 137.62666666666667 L28.432000000000002 159.28 L43.626666666666665 159.28 Z" fill="#000" stroke="#000" stroke-width="1.5"/><path d="M16 159.28 L-19.840000000000003 170.48 L-0.12800000000000367 170.48 L16 154.8 L32.128 170.48 L51.84 170.48 Z" fill="#000" stroke="#000" stroke-width="1.5"/><rect x="13.312" y="157.04" width="5.376" height="10.080000000000002" fill="#000"/><path d="M42 132.16 L32.8 156.08 L37.86 156.08 L42 128.48 L46.14 156.08 L51.2 156.08 Z" fill="#000" stroke="#000" stroke-width="1.5"/><path d="M42 146.26666666666665 L26.053333333333335 165.28 L34.824 165.28 L42 142.58666666666664 L49.176 165.28 L57.946666666666665 165.28 Z" fill="#000" stroke="#000" stroke-width="1.5"/><path d="M42 160.37333333333333 L19.306666666666672 174.48 L31.788000000000004 174.48 L42 156.69333333333333 L52.211999999999996 174.48 L64.69333333333333 174.48 Z" fill="#000" stroke="#000" stroke-width="1.5"/><path d="M42 174.48 L12.560000000000002 183.68 L28.752000000000002 183.68 L42 170.79999999999998 L55.248 183.68 L71.44 183.68 Z" fill="#000" stroke="#000" stroke-width="1.5"/><rect x="39.792" y="172.64" width="4.4159999999999995" height="8.28" fill="#000"/><path d="M68 95.56 L55.8 127.28 L62.51 127.28 L68 90.68 L73.49 127.28 L80.2 127.28 Z" fill="#000" stroke="#000" stroke-width="1.5"/><path d="M68 114.26666666666665 L46.85333333333334 139.48 L58.484 139.48 L68 109.38666666666666 L77.516 139.48 L89.14666666666666 139.48 Z" fill="#000" stroke="#000" stroke-width="1.5"/><path d="M68 132.97333333333333 L37.906666666666666 151.68 L54.458 151.68 L68 128.09333333333333 L81.542 151.68 L98.09333333333333 151.68 Z" fill="#000" stroke="#000" stroke-width="1.5"/><path d="M68 151.68 L28.96 163.88 L50.432 163.88 L68 146.8 L85.568 163.88 L107.03999999999999 163.88 Z" fill="#000" stroke="#000" stroke-width="1.5"/><rect x="65.072" y="149.24" width="5.856" height="10.98" fill="#000"/><path d="M94 119.96000000000001 L83.8 146.48 L89.41 146.48 L94 115.88000000000001 L98.59 146.48 L104.2 146.48 Z" fill="#000" stroke="#000" stroke-width="1.5"/><path d="M94 135.6 L76.32 156.68 L86.044 156.68 L94 131.51999999999998 L101.956 156.68 L111.68 156.68 Z" fill="#000" stroke="#000" stroke-width="1.5"/><path d="M94 151.24 L68.84 166.88 L82.678 166.88 L94 147.16 L105.322 166.88 L119.16 166.88 Z" fill="#000" stroke="#000" stroke-width="1.5"/><path d="M94 166.88 L61.36 177.08 L79.312 177.08 L94 162.79999999999998 L108.688 177.08 L126.64 177.08 Z" fill="#000" stroke="#000" stroke-width="1.5"/><rect x="91.552" y="164.84" width="4.896" height="9.18" fill="#000"/><path d="M120 109.36 L111.8 130.68 L116.31 130.68 L120 106.08 L123.69 130.68 L128.2 130.68 Z" fill="#000" stroke="#000" stroke-width="1.5"/><path d="M120 121.93333333333334 L105.78666666666666 138.88 L113.604 138.88 L120 118.65333333333334 L126.396 138.88 L134.21333333333334 138.88 Z" fill="#000" stroke="#000" stroke-width="1.5"/><path d="M120 134.50666666666666 L99.77333333333334 147.08 L110.898 147.08 L120 131.22666666666666 L129.102 147.08 L140.22666666666666 147.08 Z" fill="#000" stroke="#000" stroke-width="1.5"/><path d="M120 147.08 L93.76 155.28 L108.19200000000001 155.28 L120 143.8 L131.808 155.28 L146.24 155.28 Z" fill="#000" stroke="#000" stroke-width="1.5"/><rect x="118.032" y="145.44" width="3.9359999999999995" height="7.38" fill="#000"/><path d="M146 107.75999999999999 L134.8 136.88 L140.96 136.88 L146 103.27999999999999 L151.04 136.88 L157.2 136.88 Z" fill="#000" stroke="#000" stroke-width="1.5"/><path d="M146 124.93333333333332 L126.58666666666667 148.07999999999998 L137.264 148.07999999999998 L146 120.45333333333332 L154.736 148.07999999999998 L165.41333333333333 148.07999999999998 Z" fill="#000" stroke="#000" stroke-width="1.5"/><path d="M146 142.10666666666665 L118.37333333333333 159.28 L133.568 159.28 L146 137.62666666666667 L158.432 159.28 L173.62666666666667 159.28 Z" fill="#000" stroke="#000" stroke-width="1.5"/><path d="M146 159.28 L110.16 170.48 L129.87199999999999 170.48 L146 154.8 L162.12800000000001 170.48 L181.84 170.48 Z" fill="#000" stroke="#000" stroke-width="1.5"/><rect x="143.312" y="157.04" width="5.376" height="10.080000000000002" fill="#000"/><path d="M172 132.16 L162.8 156.08 L167.86 156.08 L172 128.48 L176.14 156.08 L181.2 156.08 Z" fill="#000" stroke="#000" stroke-width="1.5"/><path d="M172 146.26666666666665 L156.05333333333334 165.28 L164.824 165.28 L172 142.58666666666664 L179.176 165.28 L187.94666666666666 165.28 Z" fill="#000" stroke="#000" stroke-width="1.5"/><path d="M172 160.37333333333333 L149.30666666666667 174.48 L161.788 174.48 L172 156.69333333333333 L182.212 174.48 L194.69333333333333 174.48 Z" fill="#000" stroke="#000" stroke-width="1.5"/><path d="M172 174.48 L142.56 183.68 L158.752 183.68 L172 170.79999999999998 L185.248 183.68 L201.44 183.68 Z" fill="#000" stroke="#000" stroke-width="1.5"/><rect x="169.792" y="172.64" width="4.4159999999999995" height="8.28" fill="#000"/><path d="M198 95.56 L185.8 127.28 L192.51 127.28 L198 90.68 L203.49 127.28 L210.2 127.28 Z" fill="#000" stroke="#000" stroke-width="1.5"/><path d="M198 114.26666666666665 L176.85333333333332 139.48 L188.484 139.48 L198 109.38666666666666 L207.516 139.48 L219.14666666666668 139.48 Z" fill="#000" stroke="#000" stroke-width="1.5"/><path d="M198 132.97333333333333 L167.90666666666667 151.68 L184.458 151.68 L198 128.09333333333333 L211.542 151.68 L228.09333333333333 151.68 Z" fill="#000" stroke="#000" stroke-width="1.5"/><path d="M198 151.68 L158.96 163.88 L180.432 163.88 L198 146.8 L215.568 163.88 L237.04 163.88 Z" fill="#000" stroke="#000" stroke-width="1.5"/><rect x="195.072" y="149.24" width="5.856" height="10.98" fill="#000"/><path d="M224 119.96000000000001 L213.8 146.48 L219.41 146.48 L224 115.88000000000001 L228.59 146.48 L234.2 146.48 Z" fill="#000" stroke="#000" stroke-width="1.5"/><path d="M224 135.6 L206.32 156.68 L216.044 156.68 L224 131.51999999999998 L231.956 156.68 L241.68 156.68 Z" fill="#000" stroke="#000" stroke-width="1.5"/><path d="M224 151.24 L198.84 166.88 L212.678 166.88 L224 147.16 L235.322 166.88 L249.16 166.88 Z" fill="#000" stroke="#000" stroke-width="1.5"/><path d="M224 166.88 L191.36 177.08 L209.312 177.08 L224 162.79999999999998 L238.688 177.08 L256.64 177.08 Z" fill="#000" stroke="#000" stroke-width="1.5"/><rect x="221.552" y="164.84" width="4.896" height="9.18" fill="#000"/><path d="M250 109.36 L241.8 130.68 L246.31 130.68 L250 106.08 L253.69 130.68 L258.2 130.68 Z" fill="#000" stroke="#000" stroke-width="1.5"/><path d="M250 121.93333333333334 L235.78666666666666 138.88 L243.604 138.88 L250 118.65333333333334 L256.396 138.88 L264.2133333333333 138.88 Z" fill="#000" stroke="#000" stroke-width="1.5"/><path d="M250 134.50666666666666 L229.77333333333334 147.08 L240.898 147.08 L250 131.22666666666666 L259.102 147.08 L270.2266666666667 147.08 Z" fill="#000" stroke="#000" stroke-width="1.5"/><path d="M250 147.08 L223.76 155.28 L238.192 155.28 L250 143.8 L261.808 155.28 L276.24 155.28 Z" fill="#000" stroke="#000" stroke-width="1.5"/><rect x="248.032" y="145.44" width="3.9359999999999995" height="7.38" fill="#000"/><path d="M276 107.75999999999999 L264.8 136.88 L270.96 136.88 L276 103.27999999999999 L281.04 136.88 L287.2 136.88 Z" fill="#000" stroke="#000" stroke-width="1.5"/><path d="M276 124.93333333333332 L256.58666666666664 148.07999999999998 L267.264 148.07999999999998 L276 120.45333333333332 L284.736 148.07999999999998 L295.41333333333336 148.07999999999998 Z" fill="#000" stroke="#000" stroke-width="1.5"/><path d="M276 142.10666666666665 L248.37333333333333 159.28 L263.568 159.28 L276 137.62666666666667 L288.432 159.28 L303.62666666666667 159.28 Z" fill="#000" stroke="#000" stroke-width="1.5"/><path d="M276 159.28 L240.16 170.48 L259.872 170.48 L276 154.8 L292.128 170.48 L311.84000000000003 170.48 Z" fill="#000" stroke="#000" stroke-width="1.5"/><rect x="273.312" y="157.04" width="5.376" height="10.080000000000002" fill="#000"/><path d="M302 132.16 L292.8 156.08 L297.86 156.08 L302 128.48 L306.14 156.08 L311.2 156.08 Z" fill="#000" stroke="#000" stroke-width="1.5"/><path d="M302 146.26666666666665 L286.05333333333334 165.28 L294.824 165.28 L302 142.58666666666664 L309.176 165.28 L317.94666666666666 165.28 Z" fill="#000" stroke="#000" stroke-width="1.5"/><path d="M302 160.37333333333333 L279.3066666666667 174.48 L291.788 174.48 L302 156.69333333333333 L312.212 174.48 L324.6933333333333 174.48 Z" fill="#000" stroke="#000" stroke-width="1.5"/><path d="M302 174.48 L272.56 183.68 L288.752 183.68 L302 170.79999999999998 L315.248 183.68 L331.44 183.68 Z" fill="#000" stroke="#000" stroke-width="1.5"/><rect x="299.792" y="172.64" width="4.4159999999999995" height="8.28" fill="#000"/><path d="M328 95.56 L315.8 127.28 L322.51 127.28 L328 90.68 L333.49 127.28 L340.2 127.28 Z" fill="#000" stroke="#000" stroke-width="1.5"/><path d="M328 114.26666666666665 L306.85333333333335 139.48 L318.484 139.48 L328 109.38666666666666 L337.516 139.48 L349.14666666666665 139.48 Z" fill="#000" stroke="#000" stroke-width="1.5"/><path d="M328 132.97333333333333 L297.9066666666667 151.68 L314.458 151.68 L328 128.09333333333333 L341.542 151.68 L358.0933333333333 151.68 Z" fill="#000" stroke="#000" stroke-width="1.5"/><path d="M328 151.68 L288.96 163.88 L310.432 163.88 L328 146.8 L345.568 163.88 L367.04 163.88 Z" fill="#000" stroke="#000" stroke-width="1.5"/><rect x="325.072" y="149.24" width="5.856" height="10.98" fill="#000"/><path d="M354 119.96000000000001 L343.8 146.48 L349.41 146.48 L354 115.88000000000001 L358.59 146.48 L364.2 146.48 Z" fill="#000" stroke="#000" stroke-width="1.5"/><path d="M354 135.6 L336.32 156.68 L346.044 156.68 L354 131.51999999999998 L361.956 156.68 L371.68 156.68 Z" fill="#000" stroke="#000" stroke-width="1.5"/><path d="M354 151.24 L328.84000000000003 166.88 L342.678 166.88 L354 147.16 L365.322 166.88 L379.15999999999997 166.88 Z" fill="#000" stroke="#000" stroke-width="1.5"/><path d="M354 166.88 L321.36 177.08 L339.312 177.08 L354 162.79999999999998 L368.688 177.08 L386.64 177.08 Z" fill="#000" stroke="#000" stroke-width="1.5"/><rect x="351.552" y="164.84" width="4.896" height="9.18" fill="#000"/><path d="M380 109.36 L371.8 130.68 L376.31 130.68 L380 106.08 L383.69 130.68 L388.2 130.68 Z" fill="#000" stroke="#000" stroke-width="1.5"/><path d="M380 121.93333333333334 L365.7866666666667 138.88 L373.604 138.88 L380 118.65333333333334 L386.396 138.88 L394.2133333333333 138.88 Z" fill="#000" stroke="#000" stroke-width="1.5"/><path d="M380 134.50666666666666 L359.7733333333333 147.08 L370.898 147.08 L380 131.22666666666666 L389.102 147.08 L400.2266666666667 147.08 Z" fill="#000" stroke="#000" stroke-width="1.5"/><path d="M380 147.08 L353.76 155.28 L368.192 155.28 L380 143.8 L391.808 155.28 L406.24 155.28 Z" fill="#000" stroke="#000" stroke-width="1.5"/><rect x="378.032" y="145.44" width="3.9359999999999995" height="7.38" fill="#000"/><path d="M406 107.75999999999999 L394.8 136.88 L400.96 136.88 L406 103.27999999999999 L411.04 136.88 L417.2 136.88 Z" fill="#000" stroke="#000" stroke-width="1.5"/><path d="M406 124.93333333333332 L386.58666666666664 148.07999999999998 L397.264 148.07999999999998 L406 120.45333333333332 L414.736 148.07999999999998 L425.41333333333336 148.07999999999998 Z" fill="#000" stroke="#000" stroke-width="1.5"/><path d="M406 142.10666666666665 L378.37333333333333 159.28 L393.568 159.28 L406 137.62666666666667 L418.432 159.28 L433.62666666666667 159.28 Z" fill="#000" stroke="#000" stroke-width="1.5"/><path d="M406 159.28 L370.15999999999997 170.48 L389.872 170.48 L406 154.8 L422.128 170.48 L441.84000000000003 170.48 Z" fill="#000" stroke="#000" stroke-width="1.5"/><rect x="403.312" y="157.04" width="5.376" height="10.080000000000002" fill="#000"/><path d="M432 132.16 L422.8 156.08 L427.86 156.08 L432 128.48 L436.14 156.08 L441.2 156.08 Z" fill="#000" stroke="#000" stroke-width="1.5"/><path d="M432 146.26666666666665 L416.05333333333334 165.28 L424.824 165.28 L432 142.58666666666664 L439.176 165.28 L447.94666666666666 165.28 Z" fill="#000" stroke="#000" stroke-width="1.5"/><path d="M432 160.37333333333333 L409.3066666666667 174.48 L421.788 174.48 L432 156.69333333333333 L442.212 174.48 L454.6933333333333 174.48 Z" fill="#000" stroke="#000" stroke-width="1.5"/><path d="M432 174.48 L402.56 183.68 L418.752 183.68 L432 170.79999999999998 L445.248 183.68 L461.44 183.68 Z" fill="#000" stroke="#000" stroke-width="1.5"/><rect x="429.792" y="172.64" width="4.4159999999999995" height="8.28" fill="#000"/><path d="M0 158 L420 158" stroke-width="0"/><path d="M78 274 L78 186 L228 186 L228 274 Z" fill="#fff" stroke-width="4.6"/><path d="M60 190 L153 118 L246 190 Z" fill="url(#h135)" stroke-width="4.8"/><path d="M60 190 L246 190" stroke-width="4.8"/><path d="M153 118 L153 190" stroke-width="3"/><path d="M96 274 L96 224 q22 -22 44 0 L140 274 Z" fill="url(#cross)" stroke-width="4"/><rect x="170" y="216" width="42" height="38" fill="url(#hv)" stroke="#000" stroke-width="3.8"/><path d="M191 216 L191 254 M170 235 L212 235" stroke-width="2.8"/><rect x="196" y="140" width="16" height="26" fill="#000"/><path d="M204 138 q-14 -18 2 -30 q16 -12 2 -30 q-12 -14 4 -26" stroke-width="3.4"/><path d="M70 190 L70 206" stroke-width="2.8"/><path d="M70 206 q-11 14 -5 30 M70 206 q11 14 5 30 M70 206 q-4 16 -1 30 M70 206 q4 16 1 30" stroke-width="2.4"/><path d="M64 208 L76 208" stroke-width="3"/><path d="M88 190 L88 206" stroke-width="2.8"/><path d="M88 206 q-11 14 -5 30 M88 206 q11 14 5 30 M88 206 q-4 16 -1 30 M88 206 q4 16 1 30" stroke-width="2.4"/><path d="M82 208 L94 208" stroke-width="3"/><path d="M236 190 L236 206" stroke-width="2.8"/><path d="M236 206 q-11 14 -5 30 M236 206 q11 14 5 30 M236 206 q-4 16 -1 30 M236 206 q4 16 1 30" stroke-width="2.4"/><path d="M230 208 L242 208" stroke-width="3"/><path d="M254 190 L254 206" stroke-width="2.8"/><path d="M254 206 q-11 14 -5 30 M254 206 q11 14 5 30 M254 206 q-4 16 -1 30 M254 206 q4 16 1 30" stroke-width="2.4"/><path d="M248 208 L260 208" stroke-width="3"/><path d="M276 334 q-12 -44 20 -44 L360 290 q32 0 20 44 Z" fill="url(#h45)" stroke-width="4.8"/><path d="M262 290 q66 -14 132 0 q-66 14 -132 0 Z" fill="#fff" stroke-width="4.6"/><path d="M340 288 L376 214" stroke-width="8"/><path d="M376 214 q14 -6 10 -18 q-4 -12 -16 -8 q-12 4 -8 16 Z" fill="#000" stroke-width="3"/><path d="M56 336 q4 -44 2 -72" stroke-width="3.6"/><path d="M57 300 q-26 -6 -32 -30 q26 0 32 30 Z" fill="url(#hhf)" stroke-width="3.2"/><path d="M57 284 q26 -6 32 -30 q-26 0 -32 30 Z" fill="url(#hhf)" stroke-width="3.2"/><path d="M58 264 q-16 -10 -14 -28 q16 6 14 28 Z" fill="url(#hhf)" stroke-width="3"/><path d="M0 278 L420 278 L420 340 L0 340 Z" fill="url(#hh)" opacity=".26"/><path d="M0 278 q104 -10 208 -2 q106 8 212 -4" stroke-width="3.4"/></g></svg>