<svg xmlns="http://www.w3.org/2000/svg" viewBox="0 0 420 340" role="img" aria-label="Mlyn pri rieke" preserveAspectRatio="xMidYMid meet"><defs>
<pattern id="h45" width="7" height="7" patternUnits="userSpaceOnUse" patternTransform="rotate(45)">
  <line x1="0" y1="0" x2="0" y2="7" stroke="#000" stroke-width="2.6"/>
</pattern>
<pattern id="h45f" width="4.2" height="4.2" patternUnits="userSpaceOnUse" patternTransform="rotate(45)">
  <line x1="0" y1="0" x2="0" y2="4.2" stroke="#000" stroke-width="1.7"/>
</pattern>
<pattern id="h135" width="7" height="7" patternUnits="userSpaceOnUse" patternTransform="rotate(-45)">
  <line x1="0" y1="0" x2="0" y2="7" stroke="#000" stroke-width="2.4"/>
</pattern>
<pattern id="hv" width="6" height="6" patternUnits="userSpaceOnUse">
  <line x1="0" y1="0" x2="0" y2="6" stroke="#000" stroke-width="2.2"/>
</pattern>
<pattern id="hh" width="6" height="6" patternUnits="userSpaceOnUse">
  <line x1="0" y1="0" x2="6" y2="0" stroke="#000" stroke-width="2"/>
</pattern>
<pattern id="hhf" width="4" height="4" patternUnits="userSpaceOnUse">
  <line x1="0" y1="0" x2="4" y2="0" stroke="#000" stroke-width="1.5"/>
</pattern>
<pattern id="cross" width="7" height="7" patternUnits="userSpaceOnUse" patternTransform="rotate(45)">
  <line x1="0" y1="0" x2="0" y2="7" stroke="#000" stroke-width="2.2"/>
  <line x1="0" y1="0" x2="7" y2="0" stroke="#000" stroke-width="2.2"/>
</pattern>
<pattern id="dots" width="9" height="9" patternUnits="userSpaceOnUse">
  <circle cx="4.5" cy="4.5" r="1.7" fill="#000"/>
</pattern>
<linearGradient id="fade" x1="0" y1="0" x2="0" y2="1">
  <stop offset="0" stop-color="#fff"/><stop offset=".42" stop-color="#777"/>
  <stop offset="1" stop-color="#000"/>
</linearGradient>
<mask id="skymask"><rect x="0" y="0" width="420" height="340" fill="url(#fade)"/></mask>
</defs><g fill="none" stroke="#000" stroke-linecap="round" stroke-linejoin="round"><g mask="url(#skymask)"><rect x="0" y="0" width="420" height="340" fill="url(#h45f)" opacity=".5"/></g><path d="M60 296 L60 168 L242 168 L242 296 Z" fill="#fff" stroke-width="4.4"/><path d="M48 170 L151 106 L254 170 Z" fill="url(#h135)" stroke-width="4.4"/><path d="M48 170 L254 170" stroke-width="4.4"/><rect x="88" y="196" width="38" height="38" fill="url(#hv)" stroke="#000" stroke-width="3.4"/><path d="M107 196 L107 234 M88 215 L126 215" stroke-width="2.6"/><path d="M170 296 L170 240 q22 -22 44 0 L214 296 Z" fill="url(#cross)" stroke-width="3.8"/><circle cx="292" cy="236" r="74" fill="#fff" stroke-width="5.4"/><circle cx="292" cy="236" r="58" stroke-width="4"/><circle cx="292" cy="236" r="12" fill="#000"/><path d="M304.0 236.0 L350.0 236.0" stroke-width="3.6"/><path d="M350.0 236.0 L366.0 236.0 L366.0 249.0 L350.0 249.0 Z" fill="#000"/><path d="M302.4 242.0 L342.2 265.0" stroke-width="3.6"/><path d="M342.2 265.0 L356.1 273.0 L349.6 284.3 L335.7 276.3 Z" fill="#000"/><path d="M298.0 246.4 L321.0 286.2" stroke-width="3.6"/><path d="M321.0 286.2 L329.0 300.1 L317.7 306.6 L309.7 292.7 Z" fill="#000"/><path d="M292.0 248.0 L292.0 294.0" stroke-width="3.6"/><path d="M292.0 294.0 L292.0 310.0 L279.0 310.0 L279.0 294.0 Z" fill="#000"/><path d="M286.0 246.4 L263.0 286.2" stroke-width="3.6"/><path d="M263.0 286.2 L255.0 300.1 L243.7 293.6 L251.7 279.7 Z" fill="#000"/><path d="M281.6 242.0 L241.8 265.0" stroke-width="3.6"/><path d="M241.8 265.0 L227.9 273.0 L221.4 261.7 L235.3 253.7 Z" fill="#000"/><path d="M280.0 236.0 L234.0 236.0" stroke-width="3.6"/><path d="M234.0 236.0 L218.0 236.0 L218.0 223.0 L234.0 223.0 Z" fill="#000"/><path d="M281.6 230.0 L241.8 207.0" stroke-width="3.6"/><path d="M241.8 207.0 L227.9 199.0 L234.4 187.7 L248.3 195.7 Z" fill="#000"/><path d="M286.0 225.6 L263.0 185.8" stroke-width="3.6"/><path d="M263.0 185.8 L255.0 171.9 L266.3 165.4 L274.3 179.3 Z" fill="#000"/><path d="M292.0 224.0 L292.0 178.0" stroke-width="3.6"/><path d="M292.0 178.0 L292.0 162.0 L305.0 162.0 L305.0 178.0 Z" fill="#000"/><path d="M298.0 225.6 L321.0 185.8" stroke-width="3.6"/><path d="M321.0 185.8 L329.0 171.9 L340.3 178.4 L332.3 192.3 Z" fill="#000"/><path d="M302.4 230.0 L342.2 207.0" stroke-width="3.6"/><path d="M342.2 207.0 L356.1 199.0 L362.6 210.3 L348.7 218.3 Z" fill="#000"/><path d="M0 300 L420 300" stroke-width="4"/><path d="M0 300 L420 300 L420 340 L0 340 Z" fill="url(#hh)" opacity=".55"/><path d="M-4 310 q26 -8 52 0 q26 8 52 0 q26 -8 52 0 q26 8 52 0 q26 -8 52 0 q26 8 52 0 q26 -8 52 0 q26 8 52 0" stroke-width="3" fill="none"/><path d="M-4 322 q26 -8 52 0 q26 8 52 0 q26 -8 52 0 q26 8 52 0 q26 -8 52 0 q26 8 52 0 q26 -8 52 0 q26 8 52 0" stroke-width="3" fill="none"/><path d="M-4 332 q26 -8 52 0 q26 8 52 0 q26 -8 52 0 q26 8 52 0 q26 -8 52 0 q26 8 52 0 q26 -8 52 0 q26 8 52 0" stroke-width="3" fill="none"/></g></svg>